<svg viewBox="6.9388939e-16 0 299.67649 299.58003" xmlns="http://www.w3.org/2000/svg">
    <path d="m 181.12024,299.62901 c 10.02,0 18.758,-8.738 18.758,-18.758 v -43.80799 h 12.525 c 7.516,0 12.525,-5.011 12.525,-12.525 V 99.416015 H 74.747242 V 224.53902 c 0,7.515 5.01,12.525 12.525,12.525 h 12.525997 v 43.808 c 0,10.01999 8.736001,18.75799 18.758001,18.75799 10.019,0 18.756,-8.738 18.756,-18.75799 v -43.808 h 25.051 v 43.808 c -10e-4,10.019 8.737,18.757 18.757,18.75699 z"/>
    <path d="m 256.21224,224.53902 c 10.02,0 18.756,-8.737 18.756,-18.758 v -87.615 c 0,-9.967 -8.736,-18.750005 -18.756,-18.750005 -10.021,0 -18.758,8.783005 -18.758,18.750005 v 87.615 c 0,10.02 8.736,18.758 18.758,18.758 z"/>
    <path d="m 43.464242,224.53902 c 10.021,0 18.758,-8.737 18.758,-18.758 v -87.615 c 0,-9.967 -8.736,-18.750005 -18.758,-18.750005 -10.02,0 -18.756001,8.783005 -18.756001,18.750005 v 87.615 c 0,10.02 8.736001,18.758 18.756001,18.758 z"/>
    <path d="m 209.89724,1.8400151 c -2.504,-2.51999989 -6.232,-2.51999989 -8.736,0 l -16.799,16.7429999 -0.775,0.774 c -9.961,-4.988 -21.129,-7.479 -33.566,-7.503 -0.061,0 -0.121,-0.002 -0.182,-0.002 h -0.002 c -0.063,0 -0.121,0.002 -0.184,0.002 -12.436,0.024 -23.604,2.515 -33.564,7.503 l -0.777,-0.774 L 98.514239,1.8400151 c -2.505997,-2.51999989 -6.231997,-2.51999989 -8.735997,0 -2.506,2.506 -2.506,6.225 0,8.7289999 l 16.249998,16.253 c -5.236,3.496 -9.983998,7.774 -14.112998,12.667 -9.885,11.717 -16.19,26.966 -17.057,43.488 -0.008,0.172 -0.025,0.342 -0.033,0.514 -0.053,1.125 -0.078,2.256 -0.078,3.391 H 224.92824 c 0,-1.135 -0.027,-2.266 -0.078,-3.391 -0.008,-0.172 -0.025,-0.342 -0.035,-0.514 -0.865,-16.522 -7.172,-31.772 -17.057,-43.487 -4.127,-4.893 -8.877,-9.171 -14.113,-12.667 l 16.252,-16.253 c 2.506,-2.5049999 2.506,-6.2239999 0,-8.7299999 z m -91.365,63.1729999 c -5.182,0 -9.383,-4.201 -9.383,-9.383 0,-5.182 4.201,-9.383 9.383,-9.383 5.182,0 9.383,4.201 9.383,9.383 0,5.182 -4.201,9.383 -9.383,9.383 z m 62.611,0 c -5.182,0 -9.383,-4.201 -9.383,-9.383 0,-5.182 4.201,-9.383 9.383,-9.383 5.182,0 9.383,4.201 9.383,9.383 0,5.182 -4.201,9.383 -9.383,9.383 z"/>
</svg>
