<svg viewBox="0 0 16.5 12.5" role="img" xmlns="http://www.w3.org/2000/svg">
    <path d="M 0.75,0 C 1.16421,0 1.5,0.33579 1.5,0.75 v 11 C 1.5,12.1642 1.16421,12.5 0.75,12.5 0.33579,12.5 0,12.1642 0,11.75 v -11 C 0,0.33579 0.33579,0 0.75,0 Z m 11.5303,1.71967 4.0319,4.03394 v 0 c 0.0504,0.0569 0.0906,0.11962 0.1207,0.18582 C 16.476,6.03406 16.5,6.13923 16.5,6.25 16.5,6.3622 16.4753,6.4687 16.4312,6.5643 16.4019,6.6278 16.3633,6.688 16.3153,6.7429 L 16.2766,6.784 v 0 l -3.9963,3.9963 c -0.2929,0.2929 -0.7677,0.2929 -1.0606,0 -0.2929,-0.2929 -0.2929,-0.7677 0,-1.0606 L 13.9393,7.000003 H 3.75 C 3.33579,7.000003 3,6.6642 3,6.25 3,5.83579 3.33579,5.5000025 3.75,5.5000025 H 13.9393 L 11.2197,2.78033 c -0.2929,-0.29289 -0.2929,-0.76777 0,-1.06066 0.2929,-0.29289 0.7677,-0.29289 1.0606,0 z"/>
</svg>
