<svg viewBox="0 0 19.959482 19.38883"  xmlns="http://www.w3.org/2000/svg">
    <path d="m 8.8594817,0.06921528 c -4.6,0.5 -8.30000004,4.20000002 -8.80000004,8.70000002 -0.5,4.6999997 2.20000004,8.8999997 6.30000004,10.4999997 0.3,0.1 0.6,-0.1 0.6,-0.5 v -1.6 c 0,0 -0.4,0.1 -0.9,0.1 -1.4,0 -2,-1.2 -2.1,-1.9 -0.1,-0.4 -0.3,-0.7 -0.6,-1 -0.3,-0.1 -0.4,-0.1 -0.4,-0.2 0,-0.2 0.3,-0.2 0.4,-0.2 0.6,0 1.1,0.7 1.3,1 0.5,0.8 1.1,1 1.4,1 0.4,0 0.7,-0.1 0.9,-0.2 0.1,-0.7 0.4,-1.4 1,-1.8 -2.3,-0.5 -4,-1.8 -4,-3.9999997 0,-1.1 0.5,-2.2 1.2,-3 -0.1,-0.2 -0.2,-0.7 -0.2,-1.4 0,-0.4 0,-1 0.3,-1.6 0,0 1.4,0 2.8,1.3 0.5,-0.2 1.2,-0.3 1.9,-0.3 0.7000003,0 1.4000003,0.1 2.0000003,0.3 1.3,-1.3 2.8,-1.3 2.8,-1.3 0.2,0.6 0.2,1.2 0.2,1.6 0,0.8 -0.1,1.2 -0.2,1.4 0.7,0.8 1.2,1.8 1.2,3 0,2.1999997 -1.7,3.4999997 -4,3.9999997 0.6,0.5 1,1.4 1,2.3 v 2.6 c 0,0.3 0.3,0.6 0.7,0.5 3.7,-1.5 6.3,-5.1 6.3,-9.3 0,-5.9999997 -5.1,-10.69999972 -11.1000003,-9.99999972 z"/>
</svg>
