<svg viewBox="0 0 24 11.9" xmlns="http://www.w3.org/2000/svg">
    <path d="M 1.1,0 C 0.48600002,0 1.5879418e-8,0.48 1.5879418e-8,1.08 A 1.08,1.08 0 0 0 1.1,2.16 C 1.72,2.16 2.21,1.68 2.21,1.08 2.21,0.48 1.72,0 1.1,0 m 7.61,0.02 c -3.36,0 -5.46,2.29 -5.46,5.93 0,3.67 2.1,5.95 5.46,5.95 3.34,0 5.45,-2.28 5.45,-5.95 0,-3.64 -2.11,-5.93 -5.45,-5.93 m 10.84,0 c -2.5,0 -4.28,1.38 -4.28,3.43 0,1.63 1.01,2.65 3.13,3.14 l 1.49,0.36 c 1.45,0.33 2.04,0.81 2.04,1.64 0,0.96 -0.97,1.64 -2.35,1.64 -1.41,0 -2.47,-0.69 -2.58,-1.75 h -2 c 0.08,2.12 1.82,3.42 4.46,3.42 C 22.25,11.9 24,10.53 24,8.35 24,6.64 23,5.67 20.68,5.14 L 19.35,4.84 C 17.94,4.5 17.36,4.05 17.36,3.29 c 0,-0.96 0.88,-1.6 2.18,-1.6 1.31,0 2.21,0.65 2.31,1.72 h 1.96 C 23.76,1.39 22.09,0.02 19.55,0.02 M 8.71,1.77 c 2.04,0 3.35,1.63 3.35,4.18 0,2.57 -1.31,4.2 -3.35,4.2 -2.06,0 -3.36,-1.63 -3.36,-4.2 0,-2.55 1.3,-4.18 3.36,-4.18 M 0.11100002,3.26 v 8.45 H 2.1 V 3.26 H 0.11000002 Z"/>
</svg>
