<svg xmlns="http://www.w3.org/2000/svg" viewBox="0 0 487.222 487.222">
    <path d="m 486.554,186.811 c -1.6,-4.9 -5.8,-8.4 -10.9,-9.2 l -152,-21.6 -68.4,-137.5 c -2.3,-4.6 -7,-7.5 -12.1,-7.5 v 0 c -5.1,0 -9.8,2.9 -12.1,7.6 l -67.5,137.9 -152,22.6 c -5.1,0.8 -9.3,4.3 -10.9,9.2 -1.6,4.9 -0.2,10.3 3.5,13.8 l 110.3,106.9 -25.5,151.4 c -0.9,5.1 1.2,10.2 5.4,13.2 2.3,1.7 5.1,2.6 7.9,2.6 2.2,0 4.3,-0.5 6.3,-1.6 l 135.7,-71.9 136.1,71.1 c 2,1 4.1,1.5 6.2,1.5 v 0 c 7.4,0 13.5,-6.1 13.5,-13.5 0,-1.1 -0.1,-2.1 -0.4,-3.1 l -26.3,-150.5 109.6,-107.5 c 3.9,-3.6 5.2,-9 3.6,-13.9 z"/>
</svg>
