<svg viewBox="0 0 24 24" xmlns="http://www.w3.org/2000/svg">
    <path d="M 4.102,21.033 C 6.211,22.881 8.977,24 12,24 15.026,24 17.789,22.881 19.902,21.033 21.779,19.121 15.586,12.324 12,9.616 8.418,12.324 2.221,19.121 4.102,21.033 Z M 15.262,6.627 c 2.5,2.961 7.484,10.313 6.076,12.912 C 23.002,17.48 24,14.861 24,12.004 24,8.664 22.635,5.642 20.43,3.468 c 0,0 -0.027,-0.022 -0.082,-0.042 -0.063,-0.022 -0.152,-0.045 -0.281,-0.045 -0.592,0 -1.985,0.434 -4.805,3.246 z M 3.654,3.426 C 3.597,3.446 3.572,3.467 3.568,3.468 1.365,5.642 0,8.664 0,12.004 0,14.858 0.998,17.477 2.661,19.537 1.26,16.932 6.24,9.586 8.741,6.627 5.921,3.814 4.525,3.382 3.935,3.382 3.804,3.382 3.712,3.403 3.654,3.428 Z M 12,3.551 C 12,3.551 9.055,1.828 6.755,1.746 5.852,1.713 5.301,2.041 5.234,2.085 7.379,0.646 9.659,0 11.984,0 H 12 c 2.334,0 4.605,0.646 6.766,2.085 C 18.698,2.039 18.151,1.713 17.246,1.746 14.946,1.828 12,3.545 12,3.545 Z"/>
</svg>
