<svg version="1.1" xmlns="http://www.w3.org/2000/svg" viewBox="-257.2 -3052.7749999999996 4785.9 3370.475"><desc>Created with Snap</desc><defs></defs><g><g transform="matrix(31.6402,0,0,31.6402,1424.8905,-2725.9897)"><path d="M41.83,18.608c-0.262-0.093-0.544-0.144-0.837-0.144H3.94c-0.281,0-0.551,0.049-0.803,0.139  c-8.654,1.065-15.109,8.321-15.109,17.111c0,9.512,7.738,17.25,17.25,17.25c6.486,0,12.308-3.572,15.269-9.232h3.839  c2.96,5.66,8.782,9.232,15.268,9.232c9.513,0,17.252-7.738,17.252-17.25C56.905,26.938,50.466,19.689,41.83,18.608z M39.653,47.965  c-5.016,0-9.472-3.01-11.354-7.669c-0.382-0.945-1.299-1.563-2.318-1.563h-7.03c-1.019,0-1.936,0.618-2.318,1.563  c-1.882,4.659-6.339,7.669-11.355,7.669c-6.755,0-12.25-5.495-12.25-12.25c0-6.38,4.788-11.621,11.136-12.192  c0.118-0.011,0.234-0.03,0.347-0.058h35.905c0.114,0.027,0.232,0.047,0.353,0.058c6.349,0.573,11.137,5.814,11.137,12.192  C51.905,42.469,46.409,47.965,39.653,47.965z" style="" fill="#000000"></path><path d="M11.377,33.316H7.573V29.51c0-0.289-0.234-0.523-0.523-0.523H3.295c-0.289,0-0.523,0.234-0.523,0.523v3.806h-3.805  c-0.29,0-0.524,0.233-0.524,0.523v3.753c0,0.289,0.234,0.523,0.524,0.523h3.805v3.806c0,0.288,0.234,0.523,0.523,0.523h3.754  c0.289,0,0.523-0.235,0.523-0.523v-3.806l3.805-0.001c0.29,0,0.524-0.233,0.524-0.523V33.84  C11.901,33.55,11.667,33.316,11.377,33.316z" style="" fill="#000000"></path><circle cx="39.609" cy="40.715" r="2.491" style="" fill="#000000"></circle><circle cx="39.609" cy="30.714" r="2.492" style="" fill="#000000"></circle><circle cx="44.61" cy="35.714" r="2.492" style="" fill="#000000"></circle><path d="M34.609,33.222c-1.377-0.001-2.491,1.114-2.491,2.493c-0.001,1.375,1.114,2.49,2.491,2.49  c1.377,0.002,2.492-1.115,2.492-2.49C37.101,34.339,35.986,33.222,34.609,33.222z" style="" fill="#000000"></path><path d="M25.649,12.554c1.124-1.076,2.586-1.577,4.362-1.508l11.431,0.002c8.179,0,14.833-5.233,14.833-11.667h-5  c0,3.614-4.503,6.667-9.833,6.667H30.168c-3.119-0.117-5.876,0.88-7.979,2.895c-2.196,2.104-3.456,5.119-3.456,8.271h5  C23.734,15.445,24.45,13.703,25.649,12.554z" style="" fill="#000000"></path><desc>Created with Snap</desc><defs></defs></g><g><g transform="matrix(0.5,0,0,-0.5,0,0)"><path d="M812 -21Q477 -21 288 181Q100 383 100 734Q100 957 188 1126Q276 1296 447 1391Q618 1486 851 1486Q1118 1486 1309 1371L1221 1169Q1039 1267 856 1267Q634 1267 507 1123Q380 979 380 731Q380 485 493 342Q606 199 824 199Q964 199 1078 243L1078 583L771 583L773 796L1333 796L1333 89Q1197 33 1075 6Q954 -21 812 -21ZM1889 -21Q1736 -21 1641 63Q1547 148 1547 307Q1547 478 1659 560Q1771 643 1997 665Q2028 669 2064 673Q2100 677 2145 681Q2190 685 2216 688L2216 746Q2216 846 2170 891Q2124 937 2030 937Q1896 937 1699 862Q1698 865 1666 953Q1634 1041 1633 1043Q1827 1126 2053 1126Q2275 1126 2376 1029Q2477 933 2477 717L2477 0L2283 0Q2282 4 2261 67Q2240 130 2240 134Q2158 54 2079 16Q2001 -21 1889 -21ZM1960 165Q2051 165 2118 208Q2186 252 2215 314L2215 526Q2212 526 2162 522Q2113 518 2109 518Q1950 504 1876 458Q1802 412 1802 310Q1802 240 1843 202Q1884 165 1960 165ZM3003 0L2741 0L2741 1099L2953 1099L2983 959Q3003 984 3021 1003Q3040 1023 3072 1047Q3105 1072 3141 1088Q3178 1104 3231 1115Q3285 1126 3346 1126Q3477 1126 3555 1073Q3634 1020 3666 949Q3725 1034 3819 1080Q3913 1126 4028 1126Q4217 1126 4305 1019Q4394 912 4394 702L4394 0L4131 0L4131 624Q4131 785 4095 856Q4060 928 3960 928Q3807 928 3740 790Q3712 729 3702 643L3702 0L3440 0L3440 636Q3440 783 3401 855Q3362 927 3260 927Q3177 927 3117 885Q3057 843 3026 775Q3003 674 3003 533L3003 0ZM5160 -21Q4895 -21 4747 131Q4600 284 4600 553Q4600 815 4739 970Q4878 1125 5118 1126Q5345 1126 5470 984Q5596 842 5596 607Q5596 590 5595 552Q5595 514 5595 496L4864 496Q4868 342 4948 257Q5029 173 5170 173Q5350 173 5516 267L5553 81Q5388 -21 5160 -21ZM4869 661L5349 661Q5349 795 5288 867Q5227 939 5119 939Q5018 939 4948 869Q4879 799 4869 661ZM6106 1247L6106 217L6300 217Q6551 217 6682 348Q6813 480 6813 732Q6813 1002 6678 1124Q6543 1247 6271 1247L6106 1247ZM6284 0L5835 0L5835 1465L6259 1465Q6451 1465 6603 1421Q6755 1377 6864 1288Q6974 1200 7032 1060Q7091 921 7091 738Q7091 383 6877 191Q6663 0 6284 0ZM7891 0L7348 0L7348 1465L7805 1465Q8096 1465 8239 1380Q8382 1295 8382 1097Q8382 1065 8378 1034Q8374 1003 8360 963Q8346 924 8323 892Q8300 860 8259 829Q8218 799 8163 782Q8299 749 8371 655Q8443 562 8443 425Q8443 218 8296 109Q8150 0 7891 0ZM7619 671L7619 196L7854 196Q8166 196 8166 440Q8166 563 8088 617Q8010 671 7847 671L7619 671ZM7619 1266L7619 860L7851 860Q8120 860 8120 1065Q8120 1180 8042 1223Q7965 1266 7796 1266L7619 1266Z" style="" fill="#000000"></path></g></g></g></svg>